<?xml version="1.0" standalone="no"?><!DOCTYPE svg PUBLIC "-//W3C//DTD SVG 1.1//EN" "http://www.w3.org/Graphics/SVG/1.1/DTD/svg11.dtd"><svg t="1748950445872" class="icon" viewBox="0 0 1024 1024" version="1.1" xmlns="http://www.w3.org/2000/svg" p-id="14078" xmlns:xlink="http://www.w3.org/1999/xlink" width="64" height="64"><path d="M512 141.21142578a370.78857422 370.78857422 0 1 0 0 741.57714844A370.78857422 370.78857422 0 0 0 512 141.21142578z m155.85431456 533.5647583c-13.53305876 20.88799775-32.81406461 37.07885742-58.02768766 48.63485992-25.27590395 11.55672669-53.70278657 17.3039496-85.28137207 17.3039496-40.04516602 0-73.53997529-5.87106049-100.60754121-17.48934389s-48.26407134-29.23001647-63.65179717-52.71353423a149.18084443 149.18084443 0 0 1-24.28665162-79.47259247l55.24749757-4.82025147c2.53323912 22.18575775 8.5896939 40.2928412 18.16864013 54.50592041 9.57822203 14.15224672 24.3482083 25.58441162 44.49462891 34.42178071 20.14569639 8.6519748 42.76379943 13.10071349 67.91586578 13.10071349 22.30887115 0 42.02294648-3.33637297 59.14077759-9.94901061s29.78619933-15.7585144 38.12894225-27.25296021c8.40502382-11.61828339 12.54525483-24.22437071 12.54525482-37.88271546a57.10144043 57.10144043 0 0 0-12.05062866-36.33655608c-8.09506774-10.44436098-21.38189971-19.15789247-39.85977173-26.20287537-11.80295347-4.63485718-38.12894225-11.80295347-78.73029112-21.567294-40.66362977-9.76434052-69.0905124-18.97177398-85.40520967-27.62374879-21.13494873-11.06210053-36.89346313-24.78127777-47.21398652-41.15753173a100.91677309 100.91677309 0 0 1-15.57312011-55.12365997c0-22.30959535 6.36568666-43.1968689 19.03405488-62.60171235 12.66836822-19.40484345 31.14624023-34.11254883 55.49517274-44.18539702s51.41577423-15.07921815 81.14041685-15.07921816c32.81478882 0 61.67474092 5.25332093 86.76452638 15.882352 24.96667207 10.50591767 44.30923462 26.07831358 57.78146087 46.59552276s20.70187926 43.75305176 21.75268829 69.70825195l-56.1129123 4.20251191c-3.02786529-27.93225646-13.22455108-49.06792939-30.59005737-63.40484619-17.42706299-14.27536011-43.07303131-21.38189971-77.12402344-21.38189971-35.41030883 0-61.18011474 6.48880005-77.37097441 19.40411925-16.19085967 13.03988099-24.28665161 28.6745578-24.28665162 46.96703553 0 15.88162779 5.7472229 28.98306548 17.180112 39.24130797 11.24677062 10.25896669 40.66290557 20.76416016 88.24768067 31.51702881 47.58405089 10.75286865 80.21344542 20.20797729 97.8881836 28.24221254 25.76980591 11.86523438 44.74157989 26.94372833 57.03915953 45.11236846 12.29830385 18.16864013 18.41631532 39.17975127 18.41631532 62.91094423 0 23.48279357-6.67419434 45.73010802-20.2079773 66.49426817z" fill="#0061b2" p-id="14079"></path></svg>